<?xml version="1.0" encoding="UTF-8"?>
<svg width="1305.5" height="185.44" version="1.1" viewBox="157 206 1305.5 185.44" xmlns="http://www.w3.org/2000/svg">
 <g transform="translate(-16.437 -72.116)" fill="none">
  <title>Canvas 1</title>
  <g>
   <title>Layer 1</title>
   <g transform="translate(162,211)" fill="#c4252a" aria-label="ChineseCLIP">
    <path d="m156.03 88.355-4.3179 29.175q-9.9194-10.386-21.589-15.404-11.553-5.1348-25.207-5.1348-14.004 0-26.024 4.9014-11.903 4.7847-20.306 13.887-9.9194 10.62-15.288 24.507-5.2515 13.771-5.2515 28.591 0 26.374 16.104 42.945 16.221 16.571 41.895 16.571 12.837 0 24.624-4.4346 11.903-4.4346 22.99-13.187l-5.9517 32.676q-11.67 4.5513-22.406 6.7686-10.736 2.334-20.656 2.334-37.344 0-60.333-22.756-22.873-22.873-22.873-59.983 0-20.539 7.2354-38.978 7.3521-18.555 20.772-31.976 12.487-12.487 28.591-19.022 16.104-6.5352 34.543-6.5352 16.571 0 29.758 3.7344 13.304 3.7344 23.69 11.32z"/>
    <path d="m246.12 248 8.4024-63.834q0.23339-1.7505 0.35009-3.6177 0.1167-1.9839 0.1167-5.7183 0-10.853-5.2515-16.455-5.2515-5.7183-15.288-5.7183-15.638 0-24.507 10.036-8.8691 10.036-11.553 30.809l-7.002 54.499h-25.09l23.923-180.88h25.09l-10.97 82.856q9.4526-8.4024 19.372-12.37 9.9194-4.0845 21.006-4.0845 17.038 0 26.491 8.9858 9.5693 8.9858 9.5693 24.974 0 5.835-1.6338 19.722-0.1167 1.4004-0.2334 2.2173l-7.7022 58.583z"/>
    <path d="m321.74 98.625q0-6.1851 4.3179-10.503 4.4346-4.3179 10.736-4.3179 6.3018 0 10.503 4.3179 4.3179 4.2012 4.3179 10.503 0 6.4185-4.3179 10.736-4.2012 4.3179-10.503 4.3179-6.5352 0-10.853-4.3179-4.2012-4.3179-4.2012-10.736zm-16.571 149.38 14.587-110.63h25.09l-14.587 110.63z"/>
    <path d="m445.21 248 8.4023-63.601q0.2334-1.7505 0.3501-3.6177 0.1167-1.9839 0.1167-5.7183 0-10.853-5.2515-16.571-5.2515-5.835-15.288-5.835-15.638 0-24.507 10.153-8.8691 10.036-11.553 30.925l-7.002 54.265h-25.09l14.587-110.63h24.157l-1.8672 13.304q9.5693-8.7524 19.722-12.954 10.27-4.2012 21.823-4.2012 17.038 0 26.491 8.9858 9.5693 8.8691 9.5693 24.974 0 4.0845-0.4668 9.5693-0.4668 5.3682-1.4004 12.604l-7.7022 58.35z"/>
    <path d="m530.16 179.38h57.066q-0.3501-11.203-7.002-17.622-6.5352-6.5352-17.622-6.5352-12.604 0-21.356 6.5352-8.7524 6.5352-11.086 17.622zm55.666 34.66 18.088 14.121q-9.686 12.72-21.006 18.555-11.32 5.835-26.024 5.835-24.624 0-39.794-14.821-15.171-14.938-15.171-39.211 0-28.475 17.388-46.68 17.505-18.322 44.462-18.322 22.523 0 35.827 14.004 13.42 13.887 13.42 37.344 0 1.9839-0.2334 5.1348-0.1167 3.0342-0.4668 7.352h-84.374q0 15.054 7.5854 24.04 7.5854 8.8691 20.189 8.8691 8.7524 0 16.571-4.2012 7.9356-4.3179 13.537-12.02z"/>
    <path d="m636.71 215.44q6.1851 8.6357 13.654 13.187t15.521 4.5513q7.9356 0 12.72-3.501 4.7847-3.6177 4.7847-9.4526 0-8.2856-17.738-18.088-0.70019-0.3501-0.93359-0.4668-16.921-9.5693-22.29-16.455-5.2515-7.002-5.2515-16.805 0-15.638 11.553-25.324 11.553-9.8027 30.108-9.8027 11.32 0 20.889 4.2012 9.5693 4.2012 17.972 12.72l-15.521 16.104q-5.3682-6.6519-12.02-10.153-6.6519-3.501-14.004-3.501-5.9517 0-10.153 3.6177-4.2012 3.6177-4.2012 8.519 0 8.0522 14.938 15.404 5.4849 2.8008 8.519 4.4346 12.954 7.1187 17.855 14.237 4.9014 7.002 4.9014 17.388 0 16.571-11.553 26.491-11.553 9.8027-31.042 9.8027-12.837 0-23.923-5.1348-10.97-5.2515-19.372-15.171z"/>
    <path d="m755.04 179.38h57.066q-0.35009-11.203-7.002-17.622-6.5352-6.5352-17.622-6.5352-12.604 0-21.356 6.5352-8.7524 6.5352-11.086 17.622zm55.666 34.66 18.088 14.121q-9.686 12.72-21.006 18.555-11.32 5.835-26.024 5.835-24.624 0-39.794-14.821-15.171-14.938-15.171-39.211 0-28.475 17.388-46.68 17.505-18.322 44.462-18.322 22.523 0 35.827 14.004 13.42 13.887 13.42 37.344 0 1.9839-0.2334 5.1348-0.1167 3.0342-0.46679 7.352h-84.374q0 15.054 7.5854 24.04 7.5854 8.8691 20.189 8.8691 8.7524 0 16.571-4.2012 7.9356-4.3179 13.537-12.02z"/>
    <g fill="#3669ad">
     <path d="m1006.6 88.355-4.3179 29.175q-9.9194-10.386-21.589-15.404-11.553-5.1348-25.207-5.1348-14.004 0-26.024 4.9014-11.903 4.7847-20.306 13.887-9.9194 10.62-15.288 24.507-5.2515 13.771-5.2515 28.591 0 26.374 16.104 42.945 16.221 16.571 41.895 16.571 12.837 0 24.624-4.4346 11.903-4.4346 22.99-13.187l-5.9517 32.676q-11.67 4.5513-22.406 6.7686-10.736 2.334-20.656 2.334-37.344 0-60.333-22.756-22.873-22.873-22.873-59.983 0-20.539 7.2354-38.978 7.352-18.555 20.772-31.976 12.487-12.487 28.591-19.022t34.543-6.5352q16.571 0 29.758 3.7344 13.304 3.7344 23.69 11.32z"/>
     <path d="m1019.1 248 22.406-170.85h26.841l-18.905 144.59h63.834l-3.6176 26.257z"/>
     <path d="m1131.7 248 22.406-170.85h27.308l-22.756 170.85z"/>
     <path d="m1237.4 150.67h8.9859q25.207 0 34.31-5.9517 9.2193-6.0684 9.2193-20.772 0-12.37-7.7022-17.388-7.7021-5.0181-29.758-5.0181h-8.6357zm-12.72 97.327h-26.724l22.406-170.85h35.36q20.422 0 29.408 2.334t15.988 7.9355q7.7021 6.0684 11.787 15.171 4.0845 8.9858 4.0845 20.189 0 13.187-4.7847 23.69-4.668 10.386-13.654 17.388-7.7021 6.0684-18.088 8.6358-10.386 2.5674-32.092 2.5674h-14.121z"/>
    </g>
   </g>
  </g>
 </g>
</svg>
